<mxfile host="app.diagrams.net" modified="2023-10-02T15:45:37.936Z" agent="Mozilla/5.0 (X11; Linux x86_64; rv:109.0) Gecko/20100101 Firefox/114.0" version="22.0.0" etag="uUI8GSJv6t2YOiN9uFmW" type="github">
  <diagram name="PÃ¡gina-1" id="lE59g0ZhoHkxbaMoD-7U">
    <mxGraphModel>
      <root>
        <mxCell id="0" />
        <mxCell id="1" parent="0" />
      </root>
    </mxGraphModel>
  </diagram>
</mxfile>
